<svg t="1720239665457" class="icon" viewBox="0 0 1024 1024" version="1.1" xmlns="http://www.w3.org/2000/svg" p-id="25952" width="200" height="200"><path d="M741.3 207.2L710.1 176c-17.2-17.2-45.2-17.2-62.5 0l-30.3 30.3L711 300l30.3-30.3c17.3-17.3 17.3-45.3 0-62.5zM678.9 332.1l-93.7-93.7-253.5 253.5 0.2 0.2-15.4 89.4c-2 11.5 8 21.5 19.6 19.5l89.1-15.6 0.2 0.2 253.5-253.5zM720.6 651c-30.5-0.2-55.4 24.5-55.5 55v0.5c0 30.4 24.6 55 55 55 30.5 0.2 55.4-24.5 55.5-55 0.1-30.4-24.5-55.3-55-55.5z" p-id="25953" fill="#2c2c2c"></path><path d="M755.5 497.6s-7.5-2.3-23.5-3.4-27 0-27 0c-114.4 5.6-205.4 100.1-205.4 215.9 0 21.2 3.1 41.6 8.7 60.9H147V213.1h355.6v-49h-354c-27.9 0-50.6 22.6-50.6 50.6V771c0 27.9 22.6 50.6 50.6 50.6h381.9c37.8 62.7 106.6 104.7 185.2 104.7 119.4 0 216.2-96.8 216.2-216.2 0-105.8-76-193.8-176.4-212.5z m89.8 240.2c-14.7 2.5-27.4 11.6-34.6 24.8-7.3 13.1-8.6 28.7-3.6 42.8C793 819 776 829.1 757.4 835c-15.8-20.4-45.3-24.2-65.7-8.3-3.1 2.4-5.9 5.2-8.3 8.3-18.3-5.9-35.1-15.8-49-29.1 5.3-14.3 4.1-30.3-3.3-43.6-7.3-13.5-20.5-22.8-35.7-24.9-2.4-10.1-3.7-20.4-3.9-30.8 0-9.1 0.9-18.2 2.6-27.2 15.7-1.8 29.5-11.1 37-24.9 8-14.5 8.7-31.9 1.9-47 13.7-13.3 30.1-23.3 48.2-29.4 14 21.9 43 28.3 64.9 14.3 5.7-3.7 10.6-8.5 14.3-14.3 18 6.2 34.4 16.4 48 29.8-6.6 15-5.8 32.3 2.3 46.6 7.4 13.3 20.6 22.2 35.7 24.2 3.7 19.5 3.4 39.7-1.1 59.1z" p-id="25954" fill="#2c2c2c"></path></svg>