<svg t="1720193134741" class="icon" viewBox="0 0 1024 1024" version="1.1" xmlns="http://www.w3.org/2000/svg" p-id="18855" width="200" height="200"><path d="M585.363807 458.275748A204.012083 204.012083 0 0 0 671.188373 291.821032c0-38.724651-10.797378-74.939641-29.503107-105.814306a159.217555 159.217555 0 0 1 42.080593 272.006383A291.93776 291.93776 0 0 1 874.295811 758.734682h58.364206a291.93776 291.93776 0 0 0-190.500769-300.721573 159.159191 159.159191 0 0 0-107.448504-282.77458A204.041265 204.041265 0 0 0 466.913651 87.546309a204.041265 204.041265 0 0 0-167.797094 87.721403 159.188373 159.188373 0 0 0-107.448503 282.774579A291.93776 291.93776 0 0 0 1.225648 758.7055h58.364207a291.93776 291.93776 0 0 1 190.500769-300.721573 159.217555 159.217555 0 0 1 42.080593-272.006384A203.311713 203.311713 0 0 0 262.638928 291.821032a204.012083 204.012083 0 0 0 85.824566 166.454716C213.350356 506.834768 116.728413 636.082303 116.728413 787.916785c0 19.873012 1.66338 39.395839 4.844229 58.364207h690.682017c3.210031-18.968367 4.844229-38.491194 4.84423-58.364207 0-151.834483-96.621944-281.082018-231.735082-329.641037zM612.824166 291.821032a145.910516 145.910516 0 1 1-291.821031 0 145.910516 145.910516 0 0 1 291.821031 0z m-145.910515 204.274722c161.172756 0 291.821032 130.648276 291.821031 291.821031H175.092619c0-161.172756 130.648276-291.821032 291.821032-291.821031zM641.247535 1024h1.517469-1.517469zM291.821032 1024h0.787916-1.546651H291.821032z" fill="#2c2c2c" p-id="18856"></path></svg>