<svg t="1719846732967" class="icon" viewBox="0 0 1024 1024" version="1.1" xmlns="http://www.w3.org/2000/svg" p-id="5132"
    width="200" height="200">
    <path
        d="M496 409.728a31.84 31.84 0 0 0-12.288 12.704l-159.424 276.16a32 32 0 0 0 55.424 32l46.688-80.864h171.2l46.688 80.832a32 32 0 0 0 55.424-32l-159.424-276.096A31.872 31.872 0 0 0 512 405.44a31.872 31.872 0 0 0-16 4.288z m64.64 176h-97.28L512 501.44l48.64 84.288zM436.288 277.44a32 32 0 1 0 0 64h160a32 32 0 1 0 0-64h-160z"
        fill="#2c2c2c" p-id="5133"></path>
    <path
        d="M192 64a128 128 0 0 0-128 128v640a128 128 0 0 0 128 128h640a128 128 0 0 0 128-128V192a128 128 0 0 0-128-128H192z m640 64a64 64 0 0 1 64 64v640a64 64 0 0 1-64 64H192a64 64 0 0 1-64-64V192a64 64 0 0 1 64-64h640z"
        fill="#2c2c2c" p-id="5134"></path>
</svg>