<svg t="1720191338940" class="icon" viewBox="0 0 1024 1024" version="1.1" xmlns="http://www.w3.org/2000/svg" p-id="10595" width="200" height="200"><path d="M817.6 64.8h-611c-19.9 0-36 16.1-36 36s16.1 36 36 36h611c19.9 0 36-16.1 36-36s-16.1-36-36-36zM826.7 502.3L536.1 242.5c-0.2-0.2-0.4-0.3-0.6-0.5-0.2-0.2-0.4-0.4-0.6-0.5-0.2-0.2-0.4-0.3-0.6-0.5-0.3-0.2-0.5-0.4-0.8-0.6-0.1-0.1-0.2-0.1-0.2-0.2-3-2.2-6.3-3.9-9.9-5.1-0.5-0.2-1-0.3-1.5-0.4h-0.2c-0.5-0.1-0.9-0.2-1.4-0.4-0.1 0-0.2 0-0.3-0.1-0.4-0.1-0.9-0.2-1.3-0.3-0.1 0-0.3-0.1-0.4-0.1-0.4-0.1-0.8-0.1-1.2-0.2-0.2 0-0.4-0.1-0.6-0.1-0.3 0-0.7-0.1-1-0.1-0.3 0-0.6 0-0.9-0.1-0.3 0-0.5 0-0.8-0.1h-2.6c-8.9 0-17.4 3.3-24 9.2L196.7 502.3c-14.8 13.3-16.1 36-2.8 50.8 13.3 14.8 36 16.1 50.8 2.8l231.4-207v573.4c0 19.9 16.1 36 36 36s36-16.1 36-36V349.8L778.7 556c6.9 6.1 15.4 9.2 24 9.2 9.9 0 19.7-4.1 26.8-12 13.3-14.9 12-37.6-2.8-50.9z" fill="#2c2c2c" p-id="10596"></path></svg>