<svg t="1720239538301" class="icon" viewBox="0 0 1024 1024" version="1.1" xmlns="http://www.w3.org/2000/svg" p-id="24887" width="200" height="200"><path d="M137.9328 881.19296l0.86016-2.39616c8.35584-23.69536 29.16352-37.10976 51.2-32.52224a106.94656 106.94656 0 0 0 21.93408 2.23232c67.03104 0 157.4912-104.09984 250.63424-248.832l67.39968-112.41472-103.7312-253.5424c-23.79776-57.9584-58.90048-63.13984-89.98912-59.06432-23.36768 3.072-68.64896 52.224-110.46912 121.15968-3.80928 6.28736-12.45184 1.67936-11.5712-6.144l0.77824-6.98368c6.144-55.07072 27.42272-105.984 61.72672-144.896 28.672-32.54272 52.24448-40.38656 81.73568-40.38656q64.18432 0 128.73728 153.72288l83.968 200.92928 62.03392-94.02368C751.24736 161.52576 852.45952 65.6384 934.93248 65.6384h1.00352c35.38944 0.47104 59.392 47.26784 43.52 83.968l-1.2288 2.84672C968.94976 174.08 948.224 183.68512 927.5392 177.50016a70.81984 70.81984 0 0 0-20.60288-3.1744c-73.216 0-170.35264 116.24448-261.28384 260.97664l-51.85536 74.19904L708.608 787.51744c8.192 15.31904 39.69024 67.584 95.08864 67.29728 28.34432-0.14336 65.08544-32.27648 110.22336-96.8704 3.97312-5.69344 12.0832-1.024 11.22304 6.51264l-1.80224 16.05632c-5.75488 51.05664-33.1776 95.17056-74.60864 117.06368-31.58016 16.6912-57.05728 13.0048-72.3968 12.8-49.8688-0.69632-98.14016-60.27264-128.14336-130.74432l-96.48128-238.05952-79.99488 136.17152c-116.92032 194.39616-215.04 280.576-286.9248 280.576H184.32c-35.9424-0.08192-60.0064-38.52288-46.3872-77.12768z" fill="#2c2c2c" p-id="24888"></path><path d="M318.23872 711.14752a12.4928 12.4928 0 0 1-6.98368-2.1504L31.31392 522.52672a14.11072 14.11072 0 0 1-6.144-11.61216 14.336 14.336 0 0 1 5.81632-11.79648l279.94112-199.20896a12.71808 12.71808 0 0 1 18.26816 3.80928 14.45888 14.45888 0 0 1-3.584 19.3536L62.464 510.32064l262.79936 175.06304a14.45888 14.45888 0 0 1 4.096 19.23072 12.98432 12.98432 0 0 1-11.12064 6.53312z" fill="#2c2c2c" p-id="24889"></path><path d="M318.23872 713.19552a14.52032 14.52032 0 0 1-8.192-2.49856L30.16704 524.288a16.384 16.384 0 0 1-0.38912-26.76736l279.94112-199.22944a14.58176 14.58176 0 0 1 11.30496-2.47808 15.1552 15.1552 0 0 1 9.89184 6.8608 16.56832 16.56832 0 0 1-4.096 22.1184L66.06848 510.2592l260.32128 173.40416a16.54784 16.54784 0 0 1 4.77184 21.99552 15.03232 15.03232 0 0 1-12.92288 7.53664z m0-413.696a10.56768 10.56768 0 0 0-6.144 2.048L32.1536 500.79744a12.288 12.288 0 0 0 0.28672 20.00896l279.94112 186.49088a10.60864 10.60864 0 0 0 5.85728 1.80224 10.93632 10.93632 0 0 0 9.40032-5.5296 12.288 12.288 0 0 0-3.52256-16.4864L58.85952 510.38208l2.41664-1.72032 263.12704-187.26912a12.41088 12.41088 0 0 0 3.05152-16.5888 11.03872 11.03872 0 0 0-7.20896-5.0176 9.68704 9.68704 0 0 0-2.00704-0.2048z" fill="#2c2c2c" p-id="24890"></path></svg>