<svg t="1720193007642" class="icon" viewBox="0 0 1024 1024" version="1.1" xmlns="http://www.w3.org/2000/svg" p-id="16532" width="200" height="200"><path d="M899.669333 128a41.813333 41.813333 0 0 1 40.874667 42.666667 41.813333 41.813333 0 0 1-40.874667 42.666666H83.456A41.813333 41.813333 0 0 1 42.666667 170.666667c0-23.552 18.261333-42.666667 40.789333-42.666667h816.213333z m-489.728 341.333333a41.813333 41.813333 0 0 1 40.874667 42.666667 41.813333 41.813333 0 0 1-40.874667 42.666667H83.456A41.813333 41.813333 0 0 1 42.666667 512c0-23.552 18.261333-42.666667 40.789333-42.666667h326.485333z m0 341.333334a41.813333 41.813333 0 0 1 40.874667 42.666666 41.813333 41.813333 0 0 1-40.874667 42.666667H83.456A41.813333 41.813333 0 0 1 42.666667 853.333333c0-23.552 18.261333-42.666667 40.789333-42.666666h326.485333z m551.594667-215.808l-326.485333-204.8c-27.306667-17.066667-61.866667 3.413333-61.866667 36.608v409.6c0 33.194667 34.645333 53.674667 61.866667 36.608l326.485333-204.8a43.690667 43.690667 0 0 0 0-73.216z m-100.266667 36.608l-206.506666 129.450666V501.930667l206.506666 129.536z" p-id="16533" fill="#2c2c2c"></path></svg>