<svg t="1720328271109" class="icon" viewBox="0 0 1024 1024" version="1.1" xmlns="http://www.w3.org/2000/svg" p-id="36116" width="200" height="200"><path d="M808.58 98.1H218.59c-83.81 0-152 68.19-152 152v525.34c0 83.81 68.19 152 152 152h589.99c83.81 0 152-68.19 152-152V250.1c0-83.82-68.18-152-152-152z m-589.99 64h589.99c48.52 0 88 39.48 88 88v69.83H130.59V250.1c0-48.53 39.48-88 88-88z m589.99 701.33H218.59c-48.52 0-88-39.48-88-88v-391.5h765.99v391.51c0 48.52-39.47 87.99-88 87.99z" fill="#2c2c2c" p-id="36117"></path><path d="M417.4 704.45H226.71c-17.67 0-32 14.33-32 32s14.33 32 32 32H417.4c17.67 0 32-14.33 32-32s-14.33-32-32-32z" fill="#2c2c2c" p-id="36118"></path></svg>