<svg t="1720193197640" class="icon" viewBox="0 0 1024 1024" version="1.1" xmlns="http://www.w3.org/2000/svg" p-id="19899" width="200" height="200"><path d="M512 0c91.347862 0 179.270621 24.011034 256.635586 68.855172a34.145103 34.145103 0 0 1-34.251034 59.038897A441.485241 441.485241 0 0 0 512 68.254897C266.946207 68.254897 68.254897 266.946207 68.254897 512S266.946207 955.745103 512 955.745103 955.745103 757.053793 955.745103 512c0-78.706759-20.48-154.306207-58.862344-221.007448a34.145103 34.145103 0 1 1 59.144827-34.039173A509.740138 509.740138 0 0 1 1024 512C1024 794.765241 794.765241 1024 512 1024S0 794.765241 0 512 229.234759 0 512 0z" fill="#2c2c2c" p-id="19900"></path><path d="M689.575724 288.979862l-20.656552 7.909517-20.374069 7.944828c-30.68469 12.076138-61.369379 24.681931-90.076689 37.146483l-24.964414 11.016827-21.433379 9.851586-18.008276 8.651035-8.297931 4.13131-15.32469 8.015449c-21.645241 11.687724-37.252414 22.068966-46.892138 31.708689a130.895448 130.895448 0 0 0 185.096828 185.096828c9.639724-9.639724 20.020966-25.246897 31.708689-46.892138l8.015449-15.32469c1.341793-2.683586 2.754207-5.473103 4.13131-8.333241l8.651035-18.008276 9.886896-21.398069 10.981517-24.964414c12.464552-28.70731 25.070345-59.392 37.146483-90.076689l15.854345-41.030621a35.310345 35.310345 0 0 0-45.444414-45.444414z m-50.176 95.585104l-3.954758 9.710344c-6.038069 14.724414-12.146759 29.201655-18.220138 43.184552l-10.593104 23.975724c-1.694897 3.813517-3.425103 7.591724-5.12 11.22869l-7.415172 15.819034-10.381242 20.939035-6.320551 11.970207a391.591724 391.591724 0 0 1-5.720276 10.24l-5.04938 8.297931c-3.177931 4.943448-5.826207 8.474483-7.909517 10.593103a60.274759 60.274759 0 0 1-85.239172-85.239172c2.118621-2.08331 5.649655-4.731586 10.593103-7.909517l8.333242-5.04938 4.872827-2.824827 17.302069-9.216 20.939035-10.381242 15.819034-7.415172 22.987035-10.381242 26.341517-11.405241 29.060414-12.146759 9.675034-3.990068z" fill="#2c2c2c" p-id="19901"></path></svg>