<svg t="1720191063423" class="icon" viewBox="0 0 1024 1024" version="1.1" xmlns="http://www.w3.org/2000/svg" p-id="7261" width="200" height="200"><path d="M803.6 150.498H220.4c-65.286 0-118.4 53.114-118.4 118.4v486.203c0 65.286 53.114 118.4 118.4 118.4h583.2c65.286 0 118.4-53.114 118.4-118.4V268.898c0-65.286-53.114-118.4-118.4-118.4zM862 755.102c0 32.202-26.198 58.4-58.4 58.4H220.4c-32.202 0-58.4-26.198-58.4-58.4V268.898c0-32.202 26.198-58.4 58.4-58.4h583.2c32.202 0 58.4 26.198 58.4 58.4v486.204z" p-id="7262"></path><path d="M691.841 322.542H332.159c-16.568 0-30 13.432-30 30s13.432 30 30 30H482v288.917c0 16.568 13.432 30 30 30 16.569 0 30-13.432 30-30V382.542h149.841c16.568 0 30-13.432 30-30s-13.432-30-30-30z" p-id="7263"></path></svg>