<svg t="1720328048276" class="icon" viewBox="0 0 1024 1024" version="1.1" xmlns="http://www.w3.org/2000/svg" p-id="30023" width="200" height="200"><path d="M858.343226 554.182194l3.633548 0.198193c16.846452 1.816774 29.894194 16.152774 29.894194 33.560774v236.444904A67.253677 67.253677 0 0 1 824.815484 891.870968H199.184516c-37.029161 0-67.055484-30.224516-67.055484-67.484903v-236.444904c0-18.663226 14.996645-33.758968 33.527742-33.758967l3.633549 0.198193c16.813419 1.816774 29.861161 16.152774 29.861161 33.560774v213.487484c0 12.420129 10.008774 22.494968 22.362839 22.494968h580.971354a22.428903 22.428903 0 0 0 22.362839-22.461936v-213.520516c0-18.663226 14.996645-33.758968 33.49471-33.758967zM679.803871 132.129032c37.029161 0 67.055484 30.224516 67.055484 67.484903v455.118452a67.253677 67.253677 0 0 1-67.055484 67.517936H344.625548c-36.996129 0-67.055484-30.224516-67.055483-67.517936V199.613935c0-37.260387 30.059355-67.484903 67.055483-67.484903z m-22.329806 67.484903H366.988387a22.428903 22.428903 0 0 0-22.362839 22.494968v410.359742c0 12.420129 10.008774 22.494968 22.362839 22.494968h290.254452a22.263742 22.263742 0 0 0 16.020645-6.606452c4.261161-4.261161 6.606452-10.074839 6.540387-16.119742V222.108903a22.428903 22.428903 0 0 0-22.329806-22.461935z m-112.177549 106.859355l89.616516 224.98271h-60.349935l-19.654194-51.067871h-89.38529l-18.564129 51.067871H387.79871l87.139096-224.949677h70.35871z m-35.740903 52.190968l-23.452903 65.040516 47.566451 0.231226-24.113548-65.271742z" fill="#2c2c2c" p-id="30024"></path></svg>