<svg t="1719727980998" class="icon" viewBox="0 0 1024 1024" version="1.1" xmlns="http://www.w3.org/2000/svg" p-id="4288"
    width="200" height="200">
    <path
        d="M736 352.032L736.096 800h-0.128L288 799.968 288.032 352 736 352.032zM384 224h256v64h-256V224z m448 64h-128V202.624C704 182.048 687.232 160 640.16 160h-256.32C336.768 160 320 182.048 320 202.624V288H192a32 32 0 1 0 0 64h32V799.968C224 835.296 252.704 864 288.032 864h447.936A64.064 64.064 0 0 0 800 799.968V352h32a32 32 0 1 0 0-64z"
        fill="#4C4B4C" p-id="4289"></path>
    <path
        d="M608 690.56a32 32 0 0 0 32-32V448a32 32 0 1 0-64 0v210.56a32 32 0 0 0 32 32M416 690.56a32 32 0 0 0 32-32V448a32 32 0 1 0-64 0v210.56a32 32 0 0 0 32 32"
        fill="#4C4B4C" p-id="4290"></path>
</svg>