<svg t="1720193248817" class="icon" viewBox="0 0 1024 1024" version="1.1" xmlns="http://www.w3.org/2000/svg" p-id="20977" width="200" height="200"><path d="M287.13 574.62v161.03c0 17.67 14.33 32 32 32s32-14.33 32-32V574.62c17.67 0 33-14.33 33-32v-64c0-17.67-14.33-32-32-32h-1.09V288.65c0-17.67-14.33-32-32-32s-32 14.33-32 32v158c-17.17 0.57-30.91 14.66-30.91 31.97v64c0 17.67 13.33 32 31 32zM672.21 574.62v161.03c0 17.67 14.33 32 32 32s32-14.33 32-32V574.62c17.67 0 32-14.33 32-32v-64c0-17.67-14.33-32-32-32h-1.09V288.65c0-17.67-14.33-32-32-32s-32 14.33-32 32v158c-17.17 0.57-30.91 14.66-30.91 31.97v64c0 17.67 14.32 32 32 32zM477.73 512.65v223c0 17.67 14.33 32 32 32s32-14.33 32-32V512.67h1.09c17.67 0 32-14.33 32-32v-64c0-17.67-14.33-32-32-32v-96.03c0-17.67-14.33-32-32-32s-32 14.33-32 32v96.03c-17.67 0-32 14.33-32 32v64c0 17.31 13.75 31.4 30.91 31.98z" fill="#2c2c2c" p-id="20978"></path><path d="M991.22 0.07H32.08c-17.67 0-32 14.33-32 32v959.85c0 17.67 14.33 32 32 32h959.14c17.67 0 32-14.33 32-32V32.07c0-17.67-14.33-32-32-32z m-32 959.85H64.08V64.07h895.14v895.85z" fill="#2c2c2c" p-id="20979"></path></svg>