<svg t="1720193059714" class="icon" viewBox="0 0 1024 1024" version="1.1" xmlns="http://www.w3.org/2000/svg" p-id="17710" width="200" height="200"><path d="M568.89344 163.354624l0.007168 0.661504V859.99616c0 21.90848-23.641088 35.509248-42.496 24.73984l-0.569344-0.334848-227.89632-136.76032c-8.617984-5.1712-18.485248-7.950336-28.593152-8.07424l-0.705536-0.004096H113.788928c-31.14496 0-56.379392-24.92416-56.881152-55.947264l-0.007168-0.94208V341.34016c0-31.14496 24.923136-56.379392 55.94624-56.881152l0.94208-0.008192h154.851328c10.119168 0 20.0192-2.6624 28.694528-7.774208l0.60416-0.360448 227.89632-136.704c18.75456-11.264 42.58304 2.004992 43.058176 23.743488z m216.383488 6.703104c11.094016-11.092992 29.12768-11.092992 40.220672 0 91.307008 91.363328 141.596672 212.822016 141.596672 341.95968 0 129.08032-50.289664 250.537984-141.596672 341.902336a28.3904 28.3904 0 0 1-20.139008 8.361984c-7.22432 0-14.505984-2.787328-20.08064-8.361984-11.094016-11.094016-11.094016-29.07136 0-40.220672 80.553984-80.611328 124.928-187.734016 124.928-301.681664 0-113.948672-44.374016-221.12768-124.928-301.739008-11.094016-11.092992-11.094016-29.126656 0-40.220672z m-80.49664 120.71936c59.106304 59.049984 91.648 137.613312 91.648 221.24032 0 83.56864-32.541696 162.132992-91.648 221.184a28.3904 28.3904 0 0 1-20.140032 8.361984c-7.22432 0-14.505984-2.787328-20.08064-8.361984-11.094016-11.094016-11.094016-29.07136 0-40.220672 48.411648-48.299008 74.979328-112.58368 74.979328-180.963328 0-68.380672-26.56768-132.665344-74.980352-181.020672-11.092992-11.092992-11.092992-29.12768 0-40.220672 11.094016-11.092992 29.12768-11.092992 40.220672 0z" fill="#2c2c2c" p-id="17711"></path></svg>