<svg t="1719039704781" class="icon" viewBox="0 0 1024 1024" version="1.1" xmlns="http://www.w3.org/2000/svg" p-id="17880" width="200" height="200"><path d="M180.736 207.872H844.8c13.824 0 25.6 11.264 25.6 25.6 0 13.824-11.264 25.6-25.6 25.6H180.736c-13.824 0-25.6-11.264-25.6-25.6 0-13.824 11.776-25.6 25.6-25.6zM414.208 411.648v77.824c0 13.824-11.264 25.6-25.6 25.6-13.824 0-25.6-11.264-25.6-25.6V411.648c0-13.824 11.264-25.6 25.6-25.6s25.6 11.264 25.6 25.6zM538.112 324.608v164.352c0 13.824-11.264 25.6-25.6 25.6-13.824 0-25.6-11.264-25.6-25.6V324.608c0-13.824 11.264-25.6 25.6-25.6 14.336 0.512 25.6 11.776 25.6 25.6zM662.016 394.24v94.72c0 13.824-11.264 25.6-25.6 25.6-13.824 0-25.6-11.264-25.6-25.6V394.24c0-13.824 11.264-25.6 25.6-25.6s25.6 11.264 25.6 25.6z" fill="#000000" p-id="17881"></path><path d="M538.112 628.736v54.784c0 13.824-11.264 25.6-25.6 25.6-13.824 0-25.6-11.264-25.6-25.6v-54.784c0-13.824 11.264-25.6 25.6-25.6 14.336 0.512 25.6 11.776 25.6 25.6z" fill="#000000" p-id="17882"></path><path d="M392.192 830.464c-6.656 0-12.8-2.56-17.92-7.68-9.728-9.728-9.728-26.112 0-35.84l113.152-113.152c6.656-6.656 15.872-10.24 25.088-10.24 9.728 0 18.432 3.584 25.088 10.24l113.152 113.152c9.728 9.728 9.728 26.112 0 35.84s-26.112 9.728-35.84 0l-102.4-102.4-102.4 102.4c-4.608 5.12-11.264 7.68-17.92 7.68z" fill="#000000" p-id="17883"></path><path d="M817.152 644.608H208.896V298.496c0-13.824 11.264-25.6 25.6-25.6 13.824 0 25.6 11.264 25.6 25.6V593.92h506.88V298.496c0-13.824 11.264-25.6 25.6-25.6s25.6 11.264 25.6 25.6v346.112z" fill="#000000" p-id="17884"></path></svg>