<svg t="1719039748751" class="icon" viewBox="0 0 1060 1024" version="1.1" xmlns="http://www.w3.org/2000/svg" p-id="20693" width="64" height="64"><path d="M319.896467 550.315098a49.482794 49.482794 0 0 0 35.089348-14.538232l120.151207-120.138432 55.46161 55.46161a49.619063 49.619063 0 0 0 70.178695 0l176.260096-176.255838c19.380051-19.38431 19.380051-50.807161 0-70.182954-19.375793-19.380051-50.802903-19.380051-70.174437 0l-141.170748 141.16649-55.46161-55.465868a49.631838 49.631838 0 0 0-70.182954 0L284.802861 465.59817c-19.375793 19.380051-19.375793 50.802903 0 70.178696a49.487052 49.487052 0 0 0 35.093606 14.538232z" p-id="20694"></path><path d="M967.473786 27.709513H92.931412c-29.400104 0-53.2302 23.830096-53.2302 53.2302s23.830096 53.2302 53.2302 53.230199h9.449425v541.415009c0 29.387329 23.834354 53.2302 53.2302 53.2302h258.80949l-125.435901 125.431643c-20.785328 20.793845-20.785328 54.494949 0 75.280277a53.085414 53.085414 0 0 0 37.640139 15.59432c13.622673 0 27.245345-5.203784 37.640138-15.59432L481.201006 812.607972v127.360705c0 29.387329 23.834354 53.2302 53.2302 53.2302 29.391587 0 53.2302-23.842871 53.2302-53.2302v-127.360705l109.905458 109.9012a53.06838 53.06838 0 0 0 37.635881 15.590061c13.622673 0 27.245345-5.199526 37.644397-15.590061 20.785328-20.789587 20.785328-54.490691-0.008517-75.280278l-118.42229-118.418032h243.636754c29.395846 0 53.2302-23.834354 53.2302-53.2302V134.169912h16.194756c29.400104 0 53.2302-23.830096 53.230199-53.230199-0.004258-29.400104-23.842871-53.2302-53.234458-53.2302z m-122.650897 594.64095H208.841237V138.087655h635.981652v484.262808z" p-id="20695"></path></svg>