<svg t="1719847023693" class="icon" viewBox="0 0 1024 1024" version="1.1" xmlns="http://www.w3.org/2000/svg" p-id="6343" width="200" height="200"><path d="M419.809003 606.440777l-218.978615-23.097744c8.29919-38.29626 20.198028-68.393321 35.796504-90.391173 15.598477-21.997852 37.996289-40.995996 67.293428-57.194414 20.997949-11.598867 49.895127-20.597988 86.691534-26.997364 36.796407-6.399375 76.59252-9.599063 119.388341-9.599063 68.693292 0 123.887902 3.799629 165.48384 11.498877 41.595938 7.699248 76.39254 23.697686 104.189825 48.095304 19.498096 16.89835 34.896592 40.796016 46.195489 71.792989 11.298897 30.996973 16.89835 60.494092 16.898349 88.691338v263.974222c0 28.097256 1.799824 50.195098 5.399473 66.193535 3.599648 15.898447 11.398887 36.296455 23.397715 61.094034H656.185919c-8.59916-15.398496-14.298604-27.097354-16.898349-35.196563-2.599746-8.099209-5.299482-20.697979-7.899229-37.996289-29.997071 28.897178-59.894151 49.495166-89.491261 61.893956-40.496045 16.498389-87.691436 24.797578-141.286202 24.797578-71.293038 0-125.487745-16.498389-162.384142-49.495166-36.996387-32.996778-55.494581-73.692803-55.494581-122.188068 0-45.395567 13.298701-82.791915 39.996094-111.989064 26.597403-29.297139 75.792598-50.99502 147.485597-65.293623 85.991602-17.298311 141.686163-29.397129 167.183674-36.296456 25.49751-6.899326 52.494874-15.998438 81.092081-27.297334 0-28.097256-5.799434-47.795332-17.498292-59.094229-11.598867-11.298897-32.096866-16.89835-61.394004-16.89835-37.496338 0-65.693585 5.999414-84.391759 17.998243-14.598574 9.399082-26.397422 27.097354-35.396543 52.994824zM618.489601 726.929011c-31.496924 11.298897-64.393712 21.19793-98.490382 29.79709-46.495459 12.398789-75.992579 24.597598-88.391368 36.596426-12.79875 12.398789-19.098135 26.497412-19.098135 42.195879 0 17.998242 6.299385 32.796797 18.898154 44.195684 12.59877 11.498877 31.096963 17.19832 55.494581 17.198321 25.49751 0 49.295186-6.199395 71.193047-18.598184 21.997852-12.398789 37.496338-27.497315 46.69544-45.295576 9.199102-17.798262 13.798652-40.995996 13.798653-69.493214V726.929011zM139.136412 0.19998h763.125476v227.877747H139.136412z" fill="#2c2c2c" p-id="6344"></path></svg>