<svg t="1720239309603" class="icon" viewBox="0 0 1024 1024" version="1.1" xmlns="http://www.w3.org/2000/svg" p-id="23860" width="200" height="200"><path d="M128 426.666667m55.466667 0l0 0q55.466667 0 55.466666 55.466666l0 401.066667q0 55.466667-55.466666 55.466667l0 0q-55.466667 0-55.466667-55.466667l0-401.066667q0-55.466667 55.466667-55.466666Z" fill="#2c2c2c" p-id="23861"></path><path d="M469.333333 256m55.466667 0l0 0q55.466667 0 55.466667 55.466667l0 571.733333q0 55.466667-55.466667 55.466667l0 0q-55.466667 0-55.466667-55.466667l0-571.733333q0-55.466667 55.466667-55.466667Z" fill="#2c2c2c" p-id="23862"></path><path d="M810.666667 85.333333m55.466666 0l0 0q55.466667 0 55.466667 55.466667l0 742.4q0 55.466667-55.466667 55.466667l0 0q-55.466667 0-55.466666-55.466667l0-742.4q0-55.466667 55.466666-55.466667Z" fill="#2c2c2c" p-id="23863"></path></svg>